<svg width="64" height="64" viewBox="0 0 64 64" fill="none" xmlns="http://www.w3.org/2000/svg">
<path d="M42.9357 26.6718C44.4257 16.6718 37.0957 7.1519 26.9357 7.0019C24.7545 6.96875 22.5885 7.36975 20.5637 8.18159C18.539 8.99342 16.6959 10.2001 15.1418 11.7309C13.5877 13.2617 12.3536 15.0863 11.5113 17.0986C10.6691 19.1109 10.2354 21.2707 10.2357 23.4521C10.2402 24.1712 10.2903 24.8892 10.3857 25.602L7.07568 34.582C7.00698 34.7712 6.98459 34.9742 7.0104 35.1738C7.03622 35.3734 7.10949 35.564 7.22406 35.7294C7.33862 35.8949 7.49117 36.0305 7.66891 36.1249C7.84666 36.2194 8.04444 36.2696 8.24569 36.2719H10.8457V41.0219C10.8457 42.6636 11.4978 44.238 12.6587 45.3989C13.8195 46.5597 15.394 47.2119 17.0357 47.2119H21.3357L27.0057 57.0322L42.7657 47.9321C41.3739 44.9212 40.6117 41.6576 40.5257 38.3417C40.4957 34.1617 42.2757 31.0818 42.9357 26.6718Z" fill="#00C5A1"/>
<path d="M33.5263 19.1221H19.4763C18.2392 19.1221 17.2363 20.1247 17.2363 21.3618V35.4116C17.2363 36.6487 18.2392 37.6519 19.4763 37.6519H33.5263C34.7635 37.6519 35.7663 36.6487 35.7663 35.4116V21.3618C35.7663 20.1247 34.7635 19.1221 33.5263 19.1221Z" fill="#BDEA09"/>
<path d="M30.0052 23.752H22.9852C22.3667 23.752 21.8652 24.2535 21.8652 24.8721V31.8921C21.8652 32.5106 22.3667 33.0117 22.9852 33.0117H30.0052C30.6238 33.0117 31.1252 32.5106 31.1252 31.8921V24.8721C31.1252 24.2535 30.6238 23.752 30.0052 23.752Z" stroke="#0B0B0B" stroke-miterlimit="10"/>
<path d="M56.2356 28.3921H35.7656" stroke="#0B0B0B" stroke-linecap="round" stroke-linejoin="round"/>
<path d="M35.7656 23.522H46.0756C46.2275 23.5233 46.3781 23.4947 46.5188 23.4375C46.6594 23.3803 46.7874 23.2959 46.8953 23.189C47.0031 23.082 47.0887 22.9546 47.1471 22.8145C47.2055 22.6743 47.2356 22.5239 47.2356 22.3721V17.4521" stroke="#0B0B0B" stroke-linecap="round" stroke-linejoin="round"/>
<path d="M47.1758 18.2319C48.5565 18.2319 49.6758 17.1126 49.6758 15.7319C49.6758 14.3512 48.5565 13.2319 47.1758 13.2319C45.7951 13.2319 44.6758 14.3512 44.6758 15.7319C44.6758 17.1126 45.7951 18.2319 47.1758 18.2319Z" fill="#B17CEF"/>
<path d="M35.7656 33.2622H46.0756C46.3833 33.2622 46.6783 33.384 46.8959 33.6016C47.1134 33.8191 47.2356 34.1142 47.2356 34.4219V39.332" stroke="#0B0B0B" stroke-linecap="round" stroke-linejoin="round"/>
<path d="M47.1758 43.542C48.5565 43.542 49.6758 42.4227 49.6758 41.042C49.6758 39.6613 48.5565 38.542 47.1758 38.542C45.7951 38.542 44.6758 39.6613 44.6758 41.042C44.6758 42.4227 45.7951 43.542 47.1758 43.542Z" fill="#B17CEF"/>
<path d="M54.4658 30.8921C55.8465 30.8921 56.9658 29.7728 56.9658 28.3921C56.9658 27.0114 55.8465 25.8921 54.4658 25.8921C53.0851 25.8921 51.9658 27.0114 51.9658 28.3921C51.9658 29.7728 53.0851 30.8921 54.4658 30.8921Z" fill="#B17CEF"/>
<path d="M26.5059 19.1318V12.3618C26.5059 12.0542 26.6281 11.7595 26.8456 11.542C27.0632 11.3244 27.3582 11.2021 27.6659 11.2021H35.7659" stroke="#0B0B0B" stroke-linecap="round" stroke-linejoin="round"/>
<path d="M37.4756 13.6919C38.8563 13.6919 39.9756 12.5726 39.9756 11.1919C39.9756 9.81118 38.8563 8.69189 37.4756 8.69189C36.0949 8.69189 34.9756 9.81118 34.9756 11.1919C34.9756 12.5726 36.0949 13.6919 37.4756 13.6919Z" fill="#B17CEF"/>
</svg>
