<svg xmlns="http://www.w3.org/2000/svg" width="50" height="50" viewBox="0 0 50 50"><path d="M36,19.7C37.5,9.7,30.1.2,20,0A16.5,16.5,0,0,0,3.3,16.5a14.9,14.9,0,0,0,.2,2.1H3.4L.1,27.5a1.2,1.2,0,0,0,1.2,1.7H3.9V34A6.1,6.1,0,0,0,10,40.2h4.3L20,50l15.8-9.1a23.8,23.8,0,0,1-2.3-9.6C33.5,27.2,35.3,24.1,36,19.7Z" fill="#00c5a1"/><rect x="10.3" y="12.1" width="18.5" height="18.53" rx="2.2" fill="#e5eaef"/><rect x="10.3" y="12.1" width="18.5" height="18.53" rx="2.2" fill="#bdea09"/><rect x="14.9" y="16.8" width="9.3" height="9.26" rx="1.1" fill="none" stroke="#0b0b0b" stroke-miterlimit="10"/><line x1="49.3" y1="21.4" x2="28.8" y2="21.4" fill="none" stroke="#0b0b0b" stroke-linecap="round" stroke-linejoin="round"/><path d="M28.8,16.5H39.1a1.1,1.1,0,0,0,1.1-1.1V10.5" fill="none" stroke="#0b0b0b" stroke-linecap="round" stroke-linejoin="round"/><circle cx="40.2" cy="8.7" r="2.5" fill="#9e62ff"/><path d="M28.8,26.3H39.1a1.1,1.1,0,0,1,1.1,1.1v4.9" fill="none" stroke="#0b0b0b" stroke-linecap="round" stroke-linejoin="round"/><circle cx="40.2" cy="34" r="2.5" fill="#9e62ff"/><circle cx="47.5" cy="21.4" r="2.5" fill="#9e62ff"/><path d="M19.5,12.1V5.4a1.2,1.2,0,0,1,1.2-1.2h8.1" fill="none" stroke="#0b0b0b" stroke-linecap="round" stroke-linejoin="round"/><circle cx="30.5" cy="4.2" r="2.5" fill="#9e62ff"/></svg>