<svg width="64" height="64" viewBox="0 0 64 64" fill="none" xmlns="http://www.w3.org/2000/svg">
<path d="M25.8105 19.9802C26.4099 19.0236 27.2157 18.2131 28.1688 17.6081C29.1219 17.0032 30.1982 16.6188 31.3189 16.4836C32.4396 16.3484 33.5764 16.4659 34.646 16.8269C35.7156 17.1879 36.6909 17.7834 37.5005 18.57C37.9384 18.9901 38.3215 19.464 38.6406 19.9802" stroke="#0B0B0B" stroke-linecap="round" stroke-linejoin="round"/>
<path d="M19.3594 12.8801C19.5794 12.6101 19.8194 12.3598 20.0694 12.0998C23.2186 8.88693 27.513 7.05364 32.0115 7.00116C36.5101 6.94867 40.8461 8.68149 44.0694 11.82C44.3694 12.12 44.6594 12.4199 44.9394 12.7399" stroke="#0B0B0B" stroke-linecap="round" stroke-linejoin="round"/>
<path d="M22.4102 16.4296C22.7183 16.0408 23.0524 15.6732 23.4102 15.3295C24.5451 14.166 25.8982 13.2379 27.3921 12.5976C28.886 11.9573 30.4914 11.6176 32.1166 11.5981C33.7419 11.5786 35.355 11.8796 36.8638 12.4838C38.3727 13.088 39.7476 13.9836 40.9102 15.1195C41.2641 15.4775 41.5979 15.8551 41.9102 16.2499" stroke="#0B0B0B" stroke-linecap="round" stroke-linejoin="round"/>
<path d="M48.2302 39.13L44.6202 31.1998C43.9596 29.8171 42.9157 28.6534 41.6127 27.8468C40.3097 27.0402 38.8025 26.6248 37.2703 26.65H26.7402C25.208 26.6248 23.7007 27.0402 22.3978 27.8468C21.0948 28.6534 20.0509 29.8171 19.3903 31.1998L15.7803 39.13C26.5387 40.7167 37.4717 40.7167 48.2302 39.13Z" fill="#6491FC"/>
<path d="M48.2297 39.1299C37.4713 40.7166 26.5383 40.7166 15.7798 39.1299L15.3597 40.04C14.7772 41.3216 14.4738 42.7119 14.4697 44.1196V51.9897H49.5397V44.1196C49.5371 42.7107 49.2302 41.3193 48.6398 40.04L48.2297 39.1299Z" fill="#00C5A1"/>
<path d="M19.4697 51.9897V55.9897C19.4697 56.255 19.3644 56.5092 19.1769 56.6968C18.9893 56.8843 18.7349 56.9897 18.4697 56.9897H15.4697C15.2045 56.9897 14.9502 56.8843 14.7626 56.6968C14.5751 56.5092 14.4697 56.255 14.4697 55.9897V51.9897" fill="#B17CEF"/>
<path d="M49.54 51.9897V55.9897C49.54 56.255 49.4347 56.5092 49.2472 56.6968C49.0597 56.8843 48.8053 56.9897 48.54 56.9897H45.54C45.2748 56.9897 45.0205 56.8843 44.8329 56.6968C44.6454 56.5092 44.54 56.255 44.54 55.9897V51.9897" fill="#B17CEF"/>
<path d="M52 38.5C38.7771 40.9267 25.2229 40.9267 12 38.5" stroke="#0B0B0B" stroke-linecap="round" stroke-linejoin="round"/>
<path d="M27.4102 46.4795H36.5902" stroke="#0B0B0B" stroke-linecap="round" stroke-linejoin="round"/>
<path d="M18.1406 46.4795H20.7906" stroke="#0B0B0B" stroke-linecap="round" stroke-linejoin="round"/>
<path d="M43.21 46.4795H45.8599" stroke="#0B0B0B" stroke-linecap="round" stroke-linejoin="round"/>
</svg>
