<svg xmlns="http://www.w3.org/2000/svg" width="50" height="50" viewBox="0 0 50 50"><path d="M25,25H47a3,3,0,0,1,3,3V45a0,0,0,0,1,0,0H25a0,0,0,0,1,0,0V25A0,0,0,0,1,25,25Z" fill="#bdea09"/><path d="M22,5H0V45H8.6V38.1h7.8V45H25V8A2.9,2.9,0,0,0,22,5Z" fill="#00c5a1"/><line y1="38.3" x2="50" y2="38.3" fill="none" stroke="#0b0b0b" stroke-miterlimit="10"/><line y1="31.7" x2="50" y2="31.7" fill="none" stroke="#0b0b0b" stroke-miterlimit="10"/><line y1="25" x2="25" y2="25" fill="none" stroke="#0b0b0b" stroke-miterlimit="10"/><line y1="18.3" x2="25" y2="18.3" fill="none" stroke="#0b0b0b" stroke-miterlimit="10"/><line y1="11.7" x2="25" y2="11.7" fill="none" stroke="#0b0b0b" stroke-miterlimit="10"/></svg>