<svg xmlns="http://www.w3.org/2000/svg" width="50" height="50" viewBox="0 0 50 50"><path d="M40.7,10.1a8.8,8.8,0,0,0-3.3.6A15.1,15.1,0,0,0,7.9,15.1a2.2,2.2,0,0,0,.1.8H6.5a6.5,6.5,0,0,0,0,13H40.7a9.4,9.4,0,0,0,0-18.7Z" fill="#bdea09"/><line x1="23.3" y1="22.9" x2="23.3" y2="18" fill="none" stroke="#0b0b0b" stroke-linecap="round" stroke-miterlimit="10"/><line x1="26.8" y1="22.9" x2="26.8" y2="18" fill="none" stroke="#0b0b0b" stroke-linecap="round" stroke-miterlimit="10"/><line x1="19.7" y1="22.9" x2="19.7" y2="18" fill="none" stroke="#0b0b0b" stroke-linecap="round" stroke-miterlimit="10"/><line x1="30.3" y1="22.9" x2="30.3" y2="18" fill="none" stroke="#0b0b0b" stroke-linecap="round" stroke-miterlimit="10"/><line x1="23.3" y1="50" x2="23.3" y2="45.1" fill="none" stroke="#0b0b0b" stroke-linecap="round" stroke-miterlimit="10"/><line x1="26.8" y1="50" x2="26.8" y2="45.1" fill="none" stroke="#0b0b0b" stroke-linecap="round" stroke-miterlimit="10"/><line x1="19.7" y1="50" x2="19.7" y2="45.1" fill="none" stroke="#0b0b0b" stroke-linecap="round" stroke-miterlimit="10"/><line x1="30.3" y1="50" x2="30.3" y2="45.1" fill="none" stroke="#0b0b0b" stroke-linecap="round" stroke-miterlimit="10"/><line x1="41" y1="35.8" x2="36.1" y2="35.8" fill="none" stroke="#0b0b0b" stroke-linecap="round" stroke-miterlimit="10"/><line x1="41" y1="32.2" x2="36.1" y2="32.2" fill="none" stroke="#0b0b0b" stroke-linecap="round" stroke-miterlimit="10"/><line x1="41" y1="39.3" x2="36.1" y2="39.3" fill="none" stroke="#0b0b0b" stroke-linecap="round" stroke-miterlimit="10"/><line x1="41" y1="28.7" x2="36.1" y2="28.7" fill="none" stroke="#0b0b0b" stroke-linecap="round" stroke-miterlimit="10"/><line x1="13.9" y1="35.8" x2="9" y2="35.8" fill="none" stroke="#0b0b0b" stroke-linecap="round" stroke-miterlimit="10"/><line x1="13.9" y1="32.2" x2="9" y2="32.2" fill="none" stroke="#0b0b0b" stroke-linecap="round" stroke-miterlimit="10"/><line x1="13.9" y1="39.3" x2="9" y2="39.3" fill="none" stroke="#0b0b0b" stroke-linecap="round" stroke-miterlimit="10"/><line x1="13.9" y1="28.7" x2="9" y2="28.7" fill="none" stroke="#0b0b0b" stroke-linecap="round" stroke-miterlimit="10"/><rect x="14" y="22.9" width="22.1" height="22.12" rx="3" fill="#9e62ff"/><rect x="19.7" y="28.7" width="10.6" height="10.6" rx="1" fill="none" stroke="#0b0b0b" stroke-linecap="round" stroke-miterlimit="10"/></svg>