<svg xmlns="http://www.w3.org/2000/svg" width="50" height="50" viewBox="0 0 50 50"><path d="M9,29.4H3.5a.9.9,0,0,1-1-1v-7" fill="none" stroke="#0b0b0b" stroke-linecap="round" stroke-linejoin="round"/><path d="M9,38.6H3.5a.9.9,0,0,0-1,1v7" fill="none" stroke="#0b0b0b" stroke-linecap="round" stroke-linejoin="round"/><line x1="9" y1="34" x2="3.7" y2="34" fill="none" stroke="#0b0b0b" stroke-linecap="round" stroke-linejoin="round"/><circle cx="2.5" cy="20.5" r="2.5" fill="#9e62ff"/><circle cx="2.5" cy="34" r="2.5" fill="#9e62ff"/><circle cx="2.5" cy="47.5" r="2.5" fill="#9e62ff"/><path d="M41,29.4h5.5a.9.9,0,0,0,1-1v-7" fill="none" stroke="#0b0b0b" stroke-linecap="round" stroke-linejoin="round"/><path d="M41,38.6h5.5a.9.9,0,0,1,1,1v7" fill="none" stroke="#0b0b0b" stroke-linecap="round" stroke-linejoin="round"/><line x1="41" y1="34" x2="46.2" y2="34" fill="none" stroke="#0b0b0b" stroke-linecap="round" stroke-linejoin="round"/><circle cx="47.5" cy="20.5" r="2.5" fill="#9e62ff"/><circle cx="47.5" cy="34" r="2.5" fill="#9e62ff"/><circle cx="47.5" cy="47.5" r="2.5" fill="#9e62ff"/><path d="M33.7,18.5V9.2A8.7,8.7,0,0,0,25,.5h0a8.7,8.7,0,0,0-8.7,8.7v9.3" fill="none" stroke="#0b0b0b" stroke-linecap="round" stroke-miterlimit="10"/><rect x="9" y="18" width="32" height="32" rx="4" fill="#3f7dff"/><path d="M25,24s-4.2,3.3-7.8,3.3v8.5A5.2,5.2,0,0,0,19.1,40l5.2,3.5.7.5.8-.5L31,40a5.2,5.2,0,0,0,1.9-4.2V27.3C29.3,27.3,25,24,25,24Z" fill="#bdea09"/><polyline points="21.6 33.5 24.4 36.3 28.9 31.8" fill="none" stroke="#0b0b0b" stroke-linecap="round" stroke-miterlimit="10"/></svg>