<svg width="64" height="64" viewBox="0 0 64 64" fill="none" xmlns="http://www.w3.org/2000/svg">
<path d="M16.52 36.1602C16.52 33.5313 14.3889 31.4004 11.76 31.4004C9.13112 31.4004 7 33.5313 7 36.1602C7 38.789 9.13112 40.9199 11.76 40.9199C14.3889 40.9199 16.52 38.789 16.52 36.1602Z" fill="#B17CEF"/>
<path d="M43.5102 25.0503C43.5102 22.4214 41.3791 20.29 38.7502 20.29C36.1214 20.29 33.9902 22.4214 33.9902 25.0503V36.1602C33.9902 38.789 36.1214 40.9199 38.7502 40.9199C41.3791 40.9199 43.5102 38.789 43.5102 36.1602V25.0503Z" fill="#B17CEF"/>
<path d="M30.0102 17.7603C30.0102 15.1314 27.8791 13 25.2502 13C22.6214 13 20.4902 15.1314 20.4902 17.7603V36.1602C20.4902 38.789 22.6214 40.9199 25.2502 40.9199C27.8791 40.9199 30.0102 38.789 30.0102 36.1602V17.7603Z" fill="#B17CEF"/>
<path d="M57.0005 10.7603C57.0005 8.13138 54.8694 6 52.2405 6C49.6116 6 47.4805 8.13138 47.4805 10.7603V36.1602C47.4805 38.789 49.6116 40.9199 52.2405 40.9199C54.8694 40.9199 57.0005 38.789 57.0005 36.1602V10.7603Z" fill="#B17CEF"/>
<path d="M35.4102 43.8403L40.6302 49.0703" stroke="#0B0B0B" stroke-linecap="round" stroke-linejoin="round"/>
<path d="M40.8604 45.8789C39.9114 44.9299 38.3746 44.9286 37.4276 45.8756C36.4806 46.8226 36.482 48.3594 37.4309 49.3084L43.4203 55.2977C44.3693 56.2467 45.9064 56.2484 46.8534 55.3014C47.8004 54.3544 47.7987 52.8172 46.8498 51.8683L40.8604 45.8789Z" fill="#6491FC"/>
<path d="M25.2797 48.0303C33.1829 48.0303 39.5897 41.6234 39.5897 33.7202C39.5897 25.817 33.1829 19.4102 25.2797 19.4102C17.3765 19.4102 10.9697 25.817 10.9697 33.7202C10.9697 41.6234 17.3765 48.0303 25.2797 48.0303Z" stroke="#0B0B0B" stroke-linecap="round" stroke-linejoin="round"/>
</svg>
