<svg width="64" height="64" viewBox="0 0 64 64" fill="none" xmlns="http://www.w3.org/2000/svg">
<path d="M7 12L7 55C7 56.1046 7.89543 57 9 57H44.1899C45.2945 57 46.1899 56.1046 46.1899 55V12C46.1899 10.8954 45.2945 10 44.1899 10H9C7.89543 10 7 10.8954 7 12Z" fill="#BDEA09"/>
<path d="M17.3296 7H35.8696C36.3285 7 36.7685 7.1824 37.0929 7.50684C37.4173 7.83127 37.5996 8.27116 37.5996 8.72998V13H15.5996V8.72998C15.5996 8.27116 15.7819 7.83127 16.1063 7.50684C16.4308 7.1824 16.8708 7 17.3296 7Z" fill="#6491FC"/>
<path d="M17.8101 27.5903C20.4224 27.5903 22.5401 25.4727 22.5401 22.8604C22.5401 20.248 20.4224 18.1304 17.8101 18.1304C15.1978 18.1304 13.0801 20.248 13.0801 22.8604C13.0801 25.4727 15.1978 27.5903 17.8101 27.5903Z" fill="white"/>
<path d="M15.5303 22.54L17.2603 24.2803L20.1003 21.4399" stroke="#0B0B0B" stroke-miterlimit="10" stroke-linecap="round"/>
<path d="M17.8101 39.3501C20.4224 39.3501 22.5401 37.2324 22.5401 34.6201C22.5401 32.0078 20.4224 29.8901 17.8101 29.8901C15.1978 29.8901 13.0801 32.0078 13.0801 34.6201C13.0801 37.2324 15.1978 39.3501 17.8101 39.3501Z" fill="white"/>
<path d="M15.5303 34.3003L17.2603 36.04L20.1003 33.2002" stroke="#0B0B0B" stroke-miterlimit="10" stroke-linecap="round"/>
<path d="M17.8101 51.1001C20.4224 51.1001 22.5401 48.9824 22.5401 46.3701C22.5401 43.7578 20.4224 41.6401 17.8101 41.6401C15.1978 41.6401 13.0801 43.7578 13.0801 46.3701C13.0801 48.9824 15.1978 51.1001 17.8101 51.1001Z" fill="white"/>
<path d="M15.3906 46.0703L17.0206 47.71L19.7006 45.04" stroke="#0B0B0B" stroke-miterlimit="10" stroke-linecap="round"/>
<path d="M26.5996 22.8604H40.1096" stroke="#0B0B0B" stroke-miterlimit="10" stroke-linecap="round"/>
<path d="M26.5996 34.6201H40.1096" stroke="#0B0B0B" stroke-miterlimit="10" stroke-linecap="round"/>
<path d="M26.5996 46.3701H40.1096" stroke="#0B0B0B" stroke-miterlimit="10" stroke-linecap="round"/>
<path d="M46.1899 45.4302C52.1601 45.4302 56.9999 40.5903 56.9999 34.6201C56.9999 28.6499 52.1601 23.8101 46.1899 23.8101C40.2197 23.8101 35.3799 28.6499 35.3799 34.6201C35.3799 40.5903 40.2197 45.4302 46.1899 45.4302Z" fill="#B17CEF"/>
<path d="M46.1899 28.1201V34.6201H41.1699" stroke="#0B0B0B" stroke-miterlimit="10" stroke-linecap="round"/>
</svg>
