<svg xmlns="http://www.w3.org/2000/svg" width="50" height="50" viewBox="0 0 50 50"><path d="M6.8,44.7H39a2.3,2.3,0,0,0,2.3-2.8L36.9,20.5a2.4,2.4,0,0,0-2.3-1.9H2.4A2.5,2.5,0,0,0,0,21.5L4.5,42.9A2.3,2.3,0,0,0,6.8,44.7Z" fill="#00c5a1"/><line x1="27.8" y1="38.9" x2="32.9" y2="38.9" fill="none" stroke="#0b0b0b" stroke-linecap="round" stroke-miterlimit="10"/><line x1="11.7" y1="38.9" x2="24" y2="38.9" fill="none" stroke="#0b0b0b" stroke-linecap="round" stroke-miterlimit="10"/><line x1="22.3" y1="34.1" x2="26.9" y2="34.1" fill="none" stroke="#0b0b0b" stroke-linecap="round" stroke-miterlimit="10"/><line x1="10.4" y1="34.1" x2="18.6" y2="34.1" fill="none" stroke="#0b0b0b" stroke-linecap="round" stroke-miterlimit="10"/><line x1="25" y1="29.3" x2="30.7" y2="29.3" fill="none" stroke="#0b0b0b" stroke-linecap="round" stroke-miterlimit="10"/><line x1="9.5" y1="29.3" x2="21.5" y2="29.3" fill="none" stroke="#0b0b0b" stroke-linecap="round" stroke-miterlimit="10"/><line x1="14" y1="24.5" x2="8.5" y2="24.5" fill="none" stroke="#0b0b0b" stroke-linecap="round" stroke-miterlimit="10"/><line x1="22.3" y1="24.5" x2="17.5" y2="24.5" fill="none" stroke="#0b0b0b" stroke-linecap="round" stroke-miterlimit="10"/><line x1="6.8" y1="44.7" x2="50" y2="44.8" fill="none" stroke="#0b0b0b" stroke-linecap="round" stroke-miterlimit="10"/><rect x="25.1" y="4.8" width="20" height="20" rx="2" fill="#bdea09"/><polyline points="31.8 18.5 28.1 14.8 31.8 11" fill="none" stroke="#0b0b0b" stroke-linecap="round" stroke-miterlimit="10"/><polyline points="38.4 18.5 42.2 14.8 38.4 11" fill="none" stroke="#0b0b0b" stroke-linecap="round" stroke-miterlimit="10"/><line x1="36.5" y1="11.3" x2="33.9" y2="18.2" fill="none" stroke="#0b0b0b" stroke-linecap="round" stroke-miterlimit="10"/></svg>