<svg xmlns="http://www.w3.org/2000/svg" width="50" height="50" viewBox="0 0 50 50"><rect x="-3.9" y="6.9" width="47" height="39.19" rx="2" transform="translate(-6.9 46.1) rotate(-90)" fill="#bdea09"/><path d="M10.3,0H28.9a1.7,1.7,0,0,1,1.7,1.7V6a0,0,0,0,1,0,0H8.6a0,0,0,0,1,0,0V1.7A1.7,1.7,0,0,1,10.3,0Z" fill="#3f7dff"/><circle cx="10.8" cy="15.9" r="4.7" fill="#fff"/><polyline points="8.5 15.5 10.3 17.3 13.1 14.4" fill="none" stroke="#0b0b0b" stroke-linecap="round" stroke-miterlimit="10"/><circle cx="10.8" cy="27.6" r="4.7" fill="#fff"/><polyline points="8.5 27.3 10.3 29 13.1 26.2" fill="none" stroke="#0b0b0b" stroke-linecap="round" stroke-miterlimit="10"/><circle cx="10.8" cy="39.4" r="4.7" fill="#fff"/><polyline points="8.4 39.1 10 40.7 12.7 38" fill="none" stroke="#0b0b0b" stroke-linecap="round" stroke-miterlimit="10"/><line x1="19.6" y1="15.9" x2="33.1" y2="15.9" fill="none" stroke="#0b0b0b" stroke-linecap="round" stroke-miterlimit="10"/><line x1="19.6" y1="27.6" x2="33.1" y2="27.6" fill="none" stroke="#0b0b0b" stroke-linecap="round" stroke-miterlimit="10"/><line x1="19.6" y1="39.4" x2="33.1" y2="39.4" fill="none" stroke="#0b0b0b" stroke-linecap="round" stroke-miterlimit="10"/><circle cx="39.2" cy="27.6" r="10.8" fill="#9e62ff"/><polyline points="39.2 21.1 39.2 27.6 34.2 27.6" fill="none" stroke="#0b0b0b" stroke-linecap="round" stroke-miterlimit="10"/></svg>